<svg xmlns="http://www.w3.org/2000/svg" xml:space="preserve" id="Layer_1" width="140" height="140" x="0" y="0" style="enable-background:new 0 0 140 140" version="1.1"><style>.st67{fill:#84692c}.st71{fill:none;stroke:#33363a;stroke-width:3;stroke-linecap:round;stroke-linejoin:round;stroke-miterlimit:10}.st74{fill:#85c606}.st119{fill:#52c408}.st125{fill:none;stroke:#ffef5a;stroke-width:4;stroke-linecap:round;stroke-linejoin:round;stroke-miterlimit:10}.st138{fill:#bedd05}.st150{fill:#f42535}.st183{fill:#92fc6b}.st198{fill:#fc4259}.st200{fill:#c8dbdb}.st256{fill:#fff}.st345{fill:#70d63a}</style><path d="M21.744 124.664a5.41 5.41 0 1 1-10.82 0V76.008a5.41 5.41 0 1 1 10.82 0v48.656z" style="fill:#80c3ff"/><path d="M16.334 70.597a5.41 5.41 0 0 1 5.41 5.411v48.656a5.41 5.41 0 0 1-5.41 5.41" style="fill:#2a8bf4"/><path d="M21.744 124.664a5.41 5.41 0 0 1-5.41 5.41h0a5.41 5.41 0 0 1-5.41-5.41V76.008a5.41 5.41 0 0 1 5.41-5.411h0a5.41 5.41 0 0 1 5.41 5.411v48.656zM16.334 120.547v1.334M16.334 27.872v21.167" class="st71"/><path d="M16.334 53.194v16.167" style="fill:none;stroke:#33363a;stroke-width:5;stroke-linecap:round;stroke-linejoin:round;stroke-miterlimit:10"/><path d="M23.244 28.372v13.346a6.91 6.91 0 0 1-6.91 6.91h0a6.91 6.91 0 0 1-6.91-6.91V28.372" class="st71"/><path d="M23.686 52.275a4.164 4.164 0 0 1-4.164 4.163h-6.375a4.162 4.162 0 0 1-4.162-4.163v-7.706c0-2.3 1.863-4.164 4.162-4.164h6.375a4.164 4.164 0 0 1 4.164 4.164v7.706z" style="fill:#33363a"/><path d="M23.686 52.275a4.164 4.164 0 0 1-4.164 4.163h-6.375a4.162 4.162 0 0 1-4.162-4.163v-7.706c0-2.3 1.863-4.164 4.162-4.164h6.375a4.164 4.164 0 0 1 4.164 4.164v7.706z" class="st71"/><path d="M130.936 80.869c0 28.359-22.988 51.35-51.352 51.35-28.357 0-51.348-22.99-51.348-51.35 0-28.36 22.99-51.351 51.348-51.351 28.363.001 51.352 22.991 51.352 51.351z" class="st256"/><path d="M79.584 29.519c28.363 0 51.352 22.99 51.352 51.351 0 28.359-22.988 51.35-51.352 51.35" class="st200"/><path d="M130.936 80.869c0 28.359-22.988 51.35-51.352 51.35-28.357 0-51.348-22.99-51.348-51.35 0-28.36 22.99-51.351 51.348-51.351 28.363.001 51.352 22.991 51.352 51.351z" class="st71"/><circle cx="79.584" cy="80.869" r="34.118" class="st256"/><path d="M45.467 80.869c0-18.843 15.275-34.118 34.117-34.118 18.846 0 34.119 15.275 34.119 34.118" class="st200"/><circle cx="79.584" cy="80.869" r="34.118" class="st71"/><circle cx="79.585" cy="80.867" r="20.614" class="st200"/><path d="M79.584 101.482c-11.385 0-20.613-9.23-20.613-20.615S68.2 60.253 79.584 60.253" class="st256"/><path d="M128.609 61.5c-7.094-32.062-38.834-52.301-70.896-45.207l12.848 58.051L128.609 61.5z" style="fill:#83ed88"/><path d="M122.184 62.923c-6.307-28.514-34.535-46.514-63.049-40.205l11.426 51.625 51.623-11.42z" style="fill:#5fce96"/><path d="M118.152 63.814c-5.816-26.286-31.838-42.88-58.125-37.064L70.56 74.344l47.592-10.53z" class="st150"/><path d="m70.561 74.343 47.592-10.528c-2.908-13.144-10.867-23.863-21.387-30.571L70.561 74.343z" class="st198"/><path d="m114.877 64.538 3.275-.724c-5.816-26.286-31.838-42.88-58.125-37.064l.729 3.276c24.107-3.697 47.303 11.093 54.121 34.512z" style="fill:#d60024"/><path d="M115.631 55.8a48.635 48.635 0 0 0-18.865-22.557l-2.467 3.869c9.664 6.164 17.168 15.716 20.578 27.426l3.275-.724a48.84 48.84 0 0 0-1.695-5.856 51.995 51.995 0 0 0-.826-2.158z" class="st150"/><path d="m60.027 26.75 10.534 47.594 47.591-10.53-43.894 4.73z" class="st198"/><path d="m74.258 68.541-3.697 5.802v.001l47.591-10.53-43.894 4.73z" style="fill:#ff647e"/><path d="M128.609 61.5c-7.094-32.062-38.834-52.301-70.896-45.207l12.848 58.051L128.609 61.5z" class="st71"/><path d="M118.152 63.814c-5.816-26.286-31.838-42.88-58.125-37.064" class="st71"/><path d="M87.787 62.153c0 15.915-12.904 28.815-28.816 28.815-15.916 0-28.818-12.9-28.818-28.815s12.902-28.817 28.818-28.817c15.912 0 28.816 12.902 28.816 28.817z" style="fill:#a07f3c"/><path d="M87.787 62.153c0 15.915-12.904 28.815-28.816 28.815-15.916 0-28.818-12.9-28.818-28.815" class="st67"/><path d="M58.971 33.336v57.633c15.912 0 28.816-12.9 28.816-28.815S74.883 33.336 58.971 33.336z" class="st67"/><path d="M58.971 62.153v28.815c15.912 0 28.816-12.9 28.816-28.815H58.971z" style="fill:#705622"/><path d="M87.787 62.153c0 15.915-12.904 28.815-28.816 28.815-15.916 0-28.818-12.9-28.818-28.815s12.902-28.817 28.818-28.817c15.912 0 28.816 12.902 28.816 28.817z" class="st71"/><circle cx="58.97" cy="62.153" r="19.378" class="st138"/><path d="M39.592 62.153c0-10.702 8.676-19.378 19.379-19.378" style="fill:#def21d"/><path d="M39.592 62.153c0 10.703 8.676 19.377 19.379 19.377 10.701 0 19.377-8.674 19.377-19.377H39.592z" class="st74"/><path d="M39.592 62.153c0 10.703 8.676 19.377 19.379 19.377" class="st138"/><path d="M58.971 42.775V81.53c10.701 0 19.377-8.674 19.377-19.377 0-10.702-8.676-19.378-19.377-19.378z" class="st74"/><path d="M78.348 62.153c0-10.702-8.676-19.378-19.377-19.378M58.971 62.153V81.53c10.701 0 19.377-8.674 19.377-19.377H58.971z" class="st119"/><path d="M58.971 81.53c10.701 0 19.377-8.674 19.377-19.377" style="fill:#25c10a"/><circle cx="58.971" cy="62.152" r="6.882" class="st138"/><path d="M58.971 69.034c3.801 0 6.881-3.08 6.881-6.881s-3.08-6.883-6.881-6.883v13.764z" class="st74"/><path d="M52.086 62.153h13.766a6.882 6.882 0 0 0-6.881-6.883 6.885 6.885 0 0 0-6.885 6.883z" class="st74"/><path d="M58.971 62.153h6.881a6.882 6.882 0 0 0-6.881-6.883v6.883z" class="st119"/><circle cx="58.97" cy="62.153" r="4.126" class="st138"/><path d="M63.096 62.153a4.128 4.128 0 0 0-4.125-4.128 4.128 4.128 0 0 0-4.127 4.128h8.252z" class="st74"/><path d="M58.971 66.28v-8.255a4.128 4.128 0 0 0 0 8.255z" class="st74"/><path d="M58.971 62.153v-4.128a4.128 4.128 0 0 0-4.127 4.128h4.127z" class="st119"/><circle cx="58.971" cy="62.153" r="19.377" class="st71"/><path d="M95.33 40.122c-2.541 7.499-16.943 69.981-9.445 72.522 7.5 2.541 34.057-55.821 36.6-63.319s-2.203-13.488-9.703-16.032c-7.497-2.54-14.909-.669-17.452 6.829z" style="fill:#ffe108"/><path d="M95.33 40.122c-2.541 7.499-16.943 69.981-9.445 72.522 7.5 2.541 34.057-55.821 36.6-63.319s-3.656-9.2-11.156-11.742c-7.497-2.542-13.456-4.959-15.999 2.539z" style="fill:#ffb206"/><path d="M95.33 40.122c-2.541 7.499-16.943 69.981-9.445 72.522 7.5 2.541 34.057-55.821 36.6-63.319" style="fill:#ff8103"/><path d="M85.885 112.645c-5.676-1.924 1.197-38.192 5.977-58.961l25.133 8.52c-8.835 19.391-25.433 52.364-31.11 50.441z" style="fill:#ff6b06"/><path d="M85.885 112.645c-4.227-1.434-1.49-21.938 2.156-40.886l20.994 7.116c-8.627 17.262-18.92 35.203-23.15 33.77z" style="fill:#ed4706"/><path d="M85.885 112.645c-2.953-1.002-2.506-11.312-.725-23.896l15.834 5.366c-6.24 11.073-12.154 19.531-15.109 18.53z" style="fill:#d83705"/><path d="M95.33 40.122c-2.541 7.499-16.943 69.981-9.445 72.522 7.5 2.541 34.057-55.821 36.6-63.319s-2.203-13.488-9.703-16.032c-7.497-2.54-14.909-.669-17.452 6.829z" class="st71"/><path d="M113.168 33.935a2.532 2.532 0 0 0 1.988-2.979c-1.074-5.398 2.439-10.667 7.838-11.743a2.534 2.534 0 1 0-.988-4.969c-8.141 1.623-13.439 9.564-11.818 17.701a2.534 2.534 0 0 0 2.98 1.99z" class="st183"/><path d="M122.662 17.558a2.527 2.527 0 0 1 2.01.461 2.518 2.518 0 0 1-1.678 1.194c-5.398 1.076-8.912 6.345-7.838 11.743a2.531 2.531 0 0 1-4.57 1.93c-.277-7.254 4.736-13.865 12.076-15.328z" class="st345"/><path d="M113.168 33.935a2.532 2.532 0 0 0 1.988-2.979c-1.074-5.398 2.439-10.667 7.838-11.743a2.534 2.534 0 1 0-.988-4.969c-8.141 1.623-13.439 9.564-11.818 17.701a2.534 2.534 0 0 0 2.98 1.99z" class="st71"/><path d="M114.418 33.379a2.533 2.533 0 0 0 .232-3.575c-3.631-4.137-3.221-10.457.918-14.088a2.535 2.535 0 0 0-3.344-3.808c-6.238 5.475-6.857 15.004-1.381 21.238a2.532 2.532 0 0 0 3.575.233z" class="st183"/><path d="M114.453 14.446a2.517 2.517 0 0 1 1.967-.603 2.525 2.525 0 0 1-.852 1.872c-4.139 3.631-4.549 9.951-.918 14.088a2.534 2.534 0 0 1-2.994 3.957c-3.867-6.143-2.83-14.374 2.797-19.314z" class="st345"/><path d="M114.418 33.379a2.533 2.533 0 0 0 .232-3.575c-3.631-4.137-3.221-10.457.918-14.088a2.535 2.535 0 0 0-3.344-3.808c-6.238 5.475-6.857 15.004-1.381 21.238a2.532 2.532 0 0 0 3.575.233z" class="st71"/><path d="M113.416 29.649a2.535 2.535 0 0 1 .232-3.576c4.135-3.63 4.549-9.95.916-14.088a2.535 2.535 0 0 1 .232-3.575 2.535 2.535 0 0 1 3.576.233c5.475 6.236 4.854 15.764-1.383 21.237a2.53 2.53 0 0 1-3.573-.231z" class="st183"/><path d="M115.834 10.872a2.525 2.525 0 0 0-1.873-.854c-.08.688.111 1.406.604 1.967 3.633 4.138 3.219 10.458-.916 14.088a2.534 2.534 0 0 0 2.456 4.313c4.629-5.59 4.668-13.887-.271-19.514z" class="st345"/><path d="M113.416 29.649a2.535 2.535 0 0 1 .232-3.576c4.135-3.63 4.549-9.95.916-14.088a2.535 2.535 0 0 1 .232-3.575 2.535 2.535 0 0 1 3.576.233c5.475 6.236 4.854 15.764-1.383 21.237a2.53 2.53 0 0 1-3.573-.231z" class="st71"/><path d="M112.76 28.447a2.535 2.535 0 0 1 1.99-2.979c5.396-1.076 8.912-6.344 7.84-11.742a2.533 2.533 0 0 1 4.968-.991c1.623 8.139-3.68 16.079-11.818 17.702a2.535 2.535 0 0 1-2.98-1.99z" class="st183"/><path d="M124.244 13.396a2.515 2.515 0 0 0-1.193-1.674 2.508 2.508 0 0 0-.461 2.004c1.072 5.398-2.443 10.666-7.84 11.742a2.534 2.534 0 0 0-1.99 2.979 2.537 2.537 0 0 0 1.959 1.982c6.808-2.526 10.99-9.691 9.525-17.033z" class="st345"/><path d="M112.76 28.447a2.535 2.535 0 0 1 1.99-2.979c5.396-1.076 8.912-6.344 7.84-11.742a2.533 2.533 0 0 1 4.968-.991c1.623 8.139-3.68 16.079-11.818 17.702a2.535 2.535 0 0 1-2.98-1.99z" class="st71"/><path d="M111.725 36.298a2.534 2.534 0 0 1-1.588-3.212c1.77-5.214-1.035-10.893-6.248-12.66a2.535 2.535 0 0 1-1.588-3.212 2.538 2.538 0 0 1 3.215-1.587c7.857 2.665 12.086 11.226 9.42 19.085a2.531 2.531 0 0 1-3.211 1.586z" class="st183"/><path d="M104.43 18.827a2.514 2.514 0 0 0-2.047.197 2.518 2.518 0 0 0 1.506 1.401c5.213 1.768 8.018 7.446 6.248 12.66a2.534 2.534 0 0 0 4.283 2.507c1.215-7.157-2.9-14.362-9.99-16.765z" class="st345"/><path d="M111.725 36.298a2.534 2.534 0 0 1-1.588-3.212c1.77-5.214-1.035-10.893-6.248-12.66a2.535 2.535 0 0 1-1.588-3.212 2.538 2.538 0 0 1 3.215-1.587c7.857 2.665 12.086 11.226 9.42 19.085a2.531 2.531 0 0 1-3.211 1.586z" class="st71"/><path d="M111.799 36.323a2.535 2.535 0 0 0 3.211-1.586c1.766-5.213 7.445-8.018 12.66-6.251a2.533 2.533 0 1 0 1.623-4.799c-7.857-2.663-16.418 1.563-19.082 9.423a2.534 2.534 0 0 0 1.588 3.213z" class="st183"/><path d="M128.211 26.888c.707.239 1.23.765 1.506 1.402a2.518 2.518 0 0 1-2.047.196c-5.215-1.767-10.895 1.038-12.66 6.251a2.535 2.535 0 0 1-4.926-.614c3.387-6.422 11.035-9.64 18.127-7.235z" class="st345"/><path d="M111.799 36.323a2.535 2.535 0 0 0 3.211-1.586c1.766-5.213 7.445-8.018 12.66-6.251a2.533 2.533 0 1 0 1.623-4.799c-7.857-2.663-16.418 1.563-19.082 9.423a2.534 2.534 0 0 0 1.588 3.213zM114.873 46.745l6.602 2.238M110.07 45.049l-1.148-.365M104.049 43.048l.453.144M99.785 41.603l.451.144M112.178 54.695l6.601 2.238M107.375 52.998l-1.148-.364M101.352 50.999l.455.144M97.088 49.553l.455.143M109.07 62.507l6.604 2.238M104.271 60.811l-1.148-.365M98.246 58.81l.455.144M93.982 57.364l.454.144M105.354 70.109l6.599 2.239M100.553 68.414l-1.151-.366M94.527 66.413l.453.145M90.266 64.967l.451.144M102.082 77.866l6.154 2.086M97.611 76.28l-1.074-.34M91.994 74.418l.422.134M88.02 73.07l.421.134M97.709 85.247l6.603 2.238M92.906 83.55l-1.148-.364M86.885 81.55l.453.144M93.578 92.711l6.604 2.238M88.777 91.014l-1.148-.366M89.168 100.08l6.603 2.238M85.391 98.73l-1.149-.367M84.295 107.291l6.601 2.238" class="st71"/><path d="M116.033 101.602c0 17.107-16.32 17.805-36.447 17.805s-36.445-.697-36.445-17.805c0-17.104 16.318-30.974 36.445-30.974s36.447 13.869 36.447 30.974z" style="fill:#c17e25"/><path d="M116.033 101.602c0 17.107-16.32 17.805-36.447 17.805s-36.445-.697-36.445-17.805c0-17.104 16.318-30.974 36.445-30.974s36.447 13.869 36.447 30.974z" class="st256"/><path d="M116.033 101.602c0 17.107-16.32 17.805-36.447 17.805s-36.445-.697-36.445-17.805c0-17.104 16.318.086 36.445.086s36.447-17.191 36.447-.086z" style="fill:#f4f3e9"/><path d="M79.586 110.547c-18.092 0-33.104-13.887-35.953-4.271 2.838 12.559 17.852 13.131 35.953 13.131 18.104 0 33.117-.572 35.957-13.131-2.854-9.616-17.865 4.271-35.957 4.271z" style="fill:#e0dece"/><path d="M116.033 101.602c0 17.107-16.32 17.805-36.447 17.805s-36.445-.697-36.445-17.805c0-17.104 16.318-30.974 36.445-30.974s36.447 13.869 36.447 30.974z" class="st71"/><path d="M97.236 96.582c0 16.51-7.902 18.318-17.65 18.318s-17.65-1.809-17.65-18.318c0-8.457 7.902-15.312 17.65-15.312s17.65 6.855 17.65 15.312z" style="fill:#d3d1c1"/><path d="M97.236 96.582c0 8.455-7.902 12.182-17.65 12.182s-17.65-3.727-17.65-12.182c0-8.457 7.902-15.312 17.65-15.312s17.65 6.855 17.65 15.312z" style="fill:#ffbc00"/><path d="M79.586 84.214c9.17 0 16.703 6.065 17.564 13.821.057-.469.086-.951.086-1.453 0-8.457-7.902-15.312-17.65-15.312s-17.65 6.854-17.65 15.312c0 .502.031.984.086 1.453.861-7.756 8.396-13.821 17.564-13.821z" style="fill:#ffce00"/><path d="M97.236 96.582c0 8.455-7.902 12.182-17.65 12.182s-17.65-3.727-17.65-12.182c0-8.457 7.902-.027 17.65-.027s17.65-8.43 17.65.027z" style="fill:#ff9100"/><path d="M97.236 96.582c0 8.455-7.902 12.182-17.65 12.182s-17.65-3.727-17.65-12.182c0-8.457 7.902-15.312 17.65-15.312s17.65 6.855 17.65 15.312z" class="st71"/><path d="M67.148 91.873c.621-4.392 7.465-7.435 10.631-7.435M66.889 96.371c.031-.215.361-.361.516-.361" class="st125"/><path d="M67.143 99.723c.008-.053.088-.088.125-.088" style="fill:none;stroke:#ffef5a;stroke-width:2;stroke-linecap:round;stroke-linejoin:round;stroke-miterlimit:10"/></svg>