<svg xmlns="http://www.w3.org/2000/svg" xml:space="preserve" style="enable-background:new 0 0 512 512" viewBox="0 0 512 512"><linearGradient id="a" x1="284.966" x2="226.578" y1="-205.851" y2="880.165" gradientUnits="userSpaceOnUse"><stop offset="0" style="stop-color:#eae9fe"/><stop offset=".424" style="stop-color:#eeeefe"/><stop offset=".897" style="stop-color:#fbfbff"/><stop offset="1" style="stop-color:#fff"/></linearGradient><path d="M468.836 264.275c-9.501-7.393-20.976-13.763-25.396-24.961-6.009-15.229 3.596-31.571 9.261-46.931 17.297-46.899-4.903-102.439-44.732-132.645-75.982-57.623-224.302-37.425-245.028 42.219-8.768 33.692 6.941 72.131-9.131 103.013-20.278 38.966-74.073 41.594-108.719 58.921C2.169 285.358-6.419 332.1 24.365 367.686c11.304 13.068 25.769 22.07 36.136 36.348 15.001 20.659 23.415 43.504 43.486 60.545 28.263 23.996 75.517 29.946 100.538 2.586 14.09-15.407 18.674-38.106 34.054-52.225 20.245-18.586 52.242-16.086 78.004-6.514 25.762 9.571 49.654 25.026 76.789 29.381 42.426 6.81 87.917-18.085 105.053-57.489 17.136-39.406 4.323-89.654-29.589-116.043z" style="fill:url(#a)"/><path d="m278.068 62.515-4.694 36.993H237.55l-4.694-36.993c-.851-6.71 4.378-12.644 11.141-12.644h22.931c6.763 0 11.992 5.935 11.14 12.644z" style="fill:#e4e3ff"/><path d="m278.047 62.541-1.042 8.418-3.644 28.55h-35.84l-3.644-28.55-1.042-8.418c-.869-6.769 4.424-12.671 11.195-12.671h22.912c6.766 0 11.974 5.902 11.105 12.671z" style="fill:#e4e3ff"/><path d="m314.375 269.703-17.073 73.489c-.144.721-.651 1.369-1.224 1.73-.436.215-.939.36-1.442.36-.218 0-.433 0-.647-.072l-24.499-6.484c-.718-.144-1.295-.649-1.657-1.297a2.638 2.638 0 0 1-.215-2.089l21.541-72.336c2.019-6.844 8.936-10.735 15.852-8.934 6.842 1.873 10.951 8.717 9.364 15.633z" style="fill:#f7c9a9"/><path d="m314.391 269.703-4.179 17.868-12.897 55.621c-.144.721-.651 1.369-1.224 1.73-.433.215-.939.36-1.442.36-.218 0-.433 0-.647-.072l-24.499-6.484c-.718-.144-1.295-.649-1.657-1.297a2.638 2.638 0 0 1-.215-2.089l7.564-25.289 13.98-47.048c2.016-6.844 8.932-10.735 15.848-8.934a13.116 13.116 0 0 1 9.368 15.634z" style="fill:#f7b69a"/><path d="M277.357 340.527c-.362.576-1.01 1.008-1.731 1.152l-24.784 5.259c-.144 0-.359.072-.503.072-.577 0-1.08-.144-1.513-.504-.651-.36-1.01-1.009-1.154-1.729l-13.4-74.281c-1.224-7.061 3.24-13.618 10.156-15.131 6.92-1.441 13.688 2.81 15.419 9.727l17.868 73.344c.145.649.075 1.442-.358 2.091z" style="fill:#f7c9a9"/><path d="M277.357 340.527c-.362.576-1.01 1.008-1.731 1.152l-24.784 5.259c-.144 0-.359.072-.503.072-.577 0-1.08-.144-1.513-.504-.651-.36-1.01-1.009-1.154-1.729l-3.891-21.687-9.509-52.595c-1.224-7.061 3.24-13.618 10.156-15.131 6.92-1.441 13.688 2.81 15.419 9.727l11.528 47.335 6.339 26.009c.146.65.076 1.443-.357 2.092z" style="fill:#f7b69a"/><path d="m370.443 281.067-61.17 51.174c-7.564 5.476-13.33 13.184-16.496 22.046-3.173 8.718-8.503 16.571-15.852 22.336l-63.401 49.208h-.074l-56.342-33.142v-.072c4.107-4.107 7.277-8.934 9.222-14.41l18.659-44.526a23.539 23.539 0 0 0 1.731-10.878l-4.324-50.434v-.721c0-5.908 3.961-11.096 9.798-12.32 6.484-1.441 13.041 2.449 14.772 9.006 5.548 21.037 11.384 57.927 11.384 57.927 12.823.144 22.983 3.89 30.979 10.591l108.29-75.959c5.404-3.458 12.749-2.017 16.425 3.602 3.529 5.404 1.588 12.753-3.601 16.572z" style="fill:#f7c9a9"/><path d="m370.49 281.061-61.244 51.144c-7.574 5.516-13.276 13.184-16.453 22.065-3.182 8.695-8.51 16.549-15.897 22.346l-52.36 40.578-11.03 8.601h-.096l-56.286-33.098v-.094c3.086-3.085 5.611-6.546 7.483-10.378a31.113 31.113 0 0 0 1.685-4.02l18.7-44.505c1.402-3.461 2.054-7.2 1.771-10.94l-4.392-50.396v-.749c0-5.889 4.022-11.032 9.815-12.248 6.455-1.496 13.093 2.431 14.773 8.977 5.515 21.037 11.409 57.875 11.409 57.875 12.806.187 23 3.926 30.948 10.659l108.272-76.014c5.419-3.459 12.806-1.963 16.453 3.645 3.553 5.427 1.59 12.72-3.551 16.552z" style="fill:#ffc69f"/><path d="M426.831 250.02c0 7.095-5.752 12.847-12.847 12.847H96.94c-7.095 0-12.847-5.752-12.847-12.847s5.752-12.847 12.847-12.847h317.044c7.095 0 12.847 5.752 12.847 12.847z" style="fill:#ededed"/><path d="M414.564 237.173H96.359c0-87.839 71.333-159.033 159.17-159.033s159.035 71.194 159.035 159.033z" style="fill:#dbdbdb"/><path d="m222.512 436.614-12.36 21.316c-2.994 5.164-9.607 6.922-14.771 3.928l-59.395-34.441c-5.163-2.994-6.922-9.607-3.928-14.77l12.36-21.317c2.994-5.164 9.607-6.922 14.771-3.928l59.395 34.441c5.163 2.995 6.922 9.608 3.928 14.771z" style="fill:#ff5859"/><path d="M431 250.021c0-7.766-5.234-14.318-12.356-16.351-1.697-79.901-61.054-145.863-138.072-157.774l1.631-12.856c1.128-8.895-5.717-17.339-15.263-17.339h-22.912l-.025.001h-.007c-9.193 0-16.49 8.081-15.298 17.351l1.631 12.867c-77.014 11.97-136.352 77.897-138.05 157.75-7.12 2.033-12.354 8.585-12.354 16.351 0 9.38 7.633 17.013 17.013 17.013h81.948c-1.683 5.748-.208 11.033 3.678 56.096.574 7.332-3.018 11.549-5.352 18.326l-14.762 35.136c-.041.095-.076.19-.109.285-.141.42-.308.838-.475 1.258-.095.235-.185.472-.286.704-.178.413-.374.838-.587 1.276-.089.184-.187.364-.28.546-.391.78-.84 1.538-1.301 2.291-6.806-2.786-14.808-.25-18.601 6.29l-12.359 21.316a14.878 14.878 0 0 0-1.517 11.358 14.864 14.864 0 0 0 6.963 9.106l59.393 34.441a14.91 14.91 0 0 0 11.361 1.52 14.864 14.864 0 0 0 9.106-6.963l12.359-21.314c3.116-5.374 2.501-11.9-1.036-16.57l54.416-42.235c7.965-6.248 13.81-14.911 17.219-24.228 3.011-8.411 8.333-15.231 15-20.057.079-.057.155-.117.231-.179l61.133-51.109c5.6-4.236 7.908-11.12 6.405-17.295h34.499c9.383.001 17.016-7.632 17.016-17.012zM238.621 74.847 236.99 61.99c-.545-4.268 2.785-7.944 7.026-7.952h22.911c4.14 0 7.549 3.578 6.984 7.972v.019l-1.621 12.8a164.285 164.285 0 0 0-33.669.018zm16.91 7.461c84.001 0 152.598 67.22 154.812 150.697H100.58c2.217-83.477 70.874-150.697 154.951-150.697zM88.261 250.021c0-4.786 3.894-8.68 8.677-8.68h317.045c4.786 0 8.68 3.894 8.68 8.68 0 4.784-3.894 8.677-8.68 8.677H96.939c-4.784 0-8.678-3.893-8.678-8.677zm279.709 27.69a10.17 10.17 0 0 0-.203.16c-83.561 69.843-54.74 45.754-60.975 50.966-8.495 6.19-14.585 14.66-17.93 24.024-2.842 7.805-7.817 15.202-14.519 20.462l-52.371 40.587-3.735 2.914-51.464-29.842a39.568 39.568 0 0 0 3.404-7.163c2.24-5.221 19.573-45.361 20.438-50.826.359-2.192.466-4.407.301-6.592-4.384-50.61-5.564-51.347-3.031-55.367h13.948c3.176 4.884 11.347 53.425 12.402 59.879a4.168 4.168 0 0 0 4.07 3.517c10.5.116 20.344 2.872 28.32 9.633a4.163 4.163 0 0 0 5.09.231l104.405-73.259h14.558c.737 1.231 1.054 2.646.967 4.086-.157 2.456-1.444 4.948-3.675 6.59zm-53.018 7.997 3.499-15.055c0-.008.003-.014.003-.022.276-1.206.411-2.409.431-3.598h22.666l-26.599 18.675zm-4.437-18.674a8.8 8.8 0 0 1-.201 1.731l-5.606 24.136-25.4 17.833 13.013-43.7h18.194zm-37.356 35.095-8.55-35.095h18.999l-10.449 35.095zm-17.128-35.095 12.41 50.941-.144.484-18.763 13.161c-11.445-64.468-11.567-61.766-11.19-64.586h17.687zm-15.914 59.336c-5.485-2.343-11.559-3.743-18.184-4.178-2.573-15.524-6.919-39.682-10.938-54.922-.021-.081-.055-.156-.077-.236h19.057c-.297 4.126-.011 1.87 10.142 59.336zm-21.212 108.153v.003l-12.359 21.316a6.601 6.601 0 0 1-4.035 3.085 6.612 6.612 0 0 1-5.039-.676l-59.396-34.441a6.601 6.601 0 0 1-3.085-4.035 6.6 6.6 0 0 1 .673-5.039l12.359-21.314a6.647 6.647 0 0 1 9.076-2.415l59.393 34.438c3.168 1.841 4.25 5.912 2.413 9.078z" style="fill:#332e8e"/></svg>